<svg xmlns="http://www.w3.org/2000/svg" viewBox="0 0 500 200" width="100%" height="100%" style="background-color: #fafafa;">
  <rect x="20" y="60" width="100" height="80" rx="8" fill="#3498db" />
  <text x="70" y="105" font-family="sans-serif" font-size="12" fill="white" font-weight="bold" text-anchor="middle">Utilisateur</text>
  <rect x="190" y="40" width="120" height="120" rx="8" fill="#2ecc71" />
  <text x="250" y="105" font-family="sans-serif" font-size="14" fill="white" font-weight="bold" text-anchor="middle">Orchestrateur</text>
  <text x="250" y="125" font-family="sans-serif" font-size="10" fill="white" text-anchor="middle">(Interface &amp; Prompt)</text>
  <rect x="380" y="60" width="100" height="80" rx="8" fill="#e67e22" />
  <text x="430" y="105" font-family="sans-serif" font-size="12" fill="white" font-weight="bold" text-anchor="middle">Modèle (LLM)</text>
  <path d="M 130 85 L 180 85" fill="none" stroke="#333" stroke-width="2" marker-end="url(#arrow)" />
  <path d="M 320 85 L 370 85" fill="none" stroke="#e67e22" stroke-width="2" stroke-dasharray="3" marker-end="url(#arrow-orange)" />
  <text x="155" y="75" font-family="sans-serif" font-size="10" fill="#333" text-anchor="middle">Question</text>
  <text x="345" y="75" font-family="sans-serif" font-size="10" fill="#e67e22" text-anchor="middle">Prompt enrichi</text>
  <path d="M 370 115 L 320 115" fill="none" stroke="#e67e22" stroke-width="2" marker-end="url(#arrow-orange)" />
  <path d="M 180 115 L 130 115" fill="none" stroke="#333" stroke-width="2" marker-end="url(#arrow)" />
  <text x="345" y="135" font-family="sans-serif" font-size="10" fill="#e67e22" text-anchor="middle">Complétion brute</text>
  <text x="155" y="135" font-family="sans-serif" font-size="10" fill="#333" text-anchor="middle">Réponse mise en forme</text>
  <defs>
    <marker id="arrow" viewBox="0 0 10 10" refX="5" refY="5" markerWidth="6" markerHeight="6" orient="auto-start-reverse"><path d="M 0 0 L 10 5 L 0 10 z" fill="#333" /></marker>
    <marker id="arrow-orange" viewBox="0 0 10 10" refX="5" refY="5" markerWidth="6" markerHeight="6" orient="auto-start-reverse"><path d="M 0 0 L 10 5 L 0 10 z" fill="#e67e22" /></marker>
  </defs>
</svg>