<svg xmlns="http://www.w3.org/2000/svg" viewBox="0 0 400 300" width="100%" height="100%" style="background-color: #fafafa;">
  <line x1="50" y1="250" x2="370" y2="250" stroke="#333" stroke-width="2" marker-end="url(#arrow)"/>
  <line x1="50" y1="250" x2="50" y2="30" stroke="#333" stroke-width="2" marker-end="url(#arrow)"/>
  <text x="360" y="270" font-family="sans-serif" font-size="12" text-anchor="end">Surface (m²)</text>
  <text x="40" y="25" font-family="sans-serif" font-size="12">Prix (€)</text>
  <circle cx="90" cy="220" r="5" fill="#3498db" />
  <circle cx="120" cy="190" r="5" fill="#3498db" />
  <circle cx="150" cy="180" r="5" fill="#3498db" />
  <circle cx="180" cy="140" r="5" fill="#3498db" />
  <circle cx="210" cy="130" r="5" fill="#3498db" />
  <circle cx="250" cy="90" r="5" fill="#3498db" />
  <circle cx="290" cy="80" r="5" fill="#3498db" />
  <line x1="50" y1="250" x2="330" y2="60" stroke="#e67e22" stroke-width="3" />
  <text x="280" y="50" font-family="sans-serif" font-size="12" fill="#e67e22" font-weight="bold">Modèle (Prix moyen)</text>
  <line x1="200" y1="250" x2="200" y2="152" stroke="#95a5a6" stroke-width="1.5" stroke-dasharray="4" />
  <line x1="200" y1="152" x2="50" y2="152" stroke="#95a5a6" stroke-width="1.5" stroke-dasharray="4" />
  <circle cx="200" cy="152" r="5" fill="#2ce3a6" stroke="#27ae60" stroke-width="1.5" />
  <text x="205" y="245" font-family="sans-serif" font-size="10" fill="#27ae60" font-weight="bold">Mon bien</text>
  <defs>
    <marker id="arrow" viewBox="0 0 10 10" refX="5" refY="5" markerWidth="6" markerHeight="6" orient="auto-start-reverse">
      <path d="M 0 0 L 10 5 L 0 10 z" fill="#333" />
    </marker>
  </defs>
</svg>