<svg xmlns="http://www.w3.org/2000/svg" width="100%" viewBox="0 0 680 400" role="img">
  <title>Modèle immobilier — deux segments</title>
  <desc>Modèle à deux pentes : petites surfaces plus chères au m², grandes moins chères.</desc>
  <defs>
    <marker id="arrow" viewBox="0 0 10 10" refX="8" refY="5" markerWidth="6" markerHeight="6" orient="auto-start-reverse">
      <path d="M2 1L8 5L2 9" fill="none" stroke="context-stroke" stroke-width="1.5" stroke-linecap="round" stroke-linejoin="round"/>
    </marker>
  </defs>

  <!-- Axes -->
  <line x1="80" y1="320" x2="632" y2="320" stroke="#374151" stroke-width="1.5" marker-end="url(#arrow)"/>
  <line x1="80" y1="320" x2="80"  y2="28"  stroke="#374151" stroke-width="1.5" marker-end="url(#arrow)"/>
  <text class="ts" x="638" y="324" text-anchor="start" fill="var(--color-text-secondary)">surface (m²)</text>
  <text class="ts" x="76"  y="22"  text-anchor="end"   fill="var(--color-text-secondary)">prix (k€)</text>

  <!-- Graduations X -->
  <line x1="80"  y1="318" x2="80"  y2="324" stroke="#374151" stroke-width="1"/>
  <text class="ts" x="80"  y="334" text-anchor="middle" fill="var(--color-text-secondary)">0</text>
  <line x1="163" y1="318" x2="163" y2="324" stroke="#374151" stroke-width="1"/>
  <text class="ts" x="163" y="334" text-anchor="middle" fill="var(--color-text-secondary)">20</text>
  <line x1="247" y1="318" x2="247" y2="324" stroke="#374151" stroke-width="1"/>
  <text class="ts" x="247" y="334" text-anchor="middle" fill="var(--color-text-secondary)">40</text>
  <line x1="330" y1="318" x2="330" y2="324" stroke="#374151" stroke-width="1"/>
  <text class="ts" x="330" y="334" text-anchor="middle" fill="var(--color-text-secondary)">60</text>
  <line x1="414" y1="318" x2="414" y2="324" stroke="#374151" stroke-width="1"/>
  <text class="ts" x="414" y="334" text-anchor="middle" fill="var(--color-text-secondary)">80</text>
  <line x1="497" y1="318" x2="497" y2="324" stroke="#374151" stroke-width="1"/>
  <text class="ts" x="497" y="334" text-anchor="middle" fill="var(--color-text-secondary)">100</text>
  <line x1="581" y1="318" x2="581" y2="324" stroke="#374151" stroke-width="1"/>
  <text class="ts" x="581" y="334" text-anchor="middle" fill="var(--color-text-secondary)">120</text>

  <!-- Graduations Y -->
  <line x1="78" y1="320" x2="84" y2="320" stroke="#374151" stroke-width="1"/>
  <text class="ts" x="74" y="324" text-anchor="end" fill="var(--color-text-secondary)">0</text>
  <line x1="78" y1="273" x2="84" y2="273" stroke="#374151" stroke-width="1"/>
  <text class="ts" x="74" y="277" text-anchor="end" fill="var(--color-text-secondary)">100</text>
  <line x1="78" y1="227" x2="84" y2="227" stroke="#374151" stroke-width="1"/>
  <text class="ts" x="74" y="231" text-anchor="end" fill="var(--color-text-secondary)">200</text>
  <line x1="78" y1="180" x2="84" y2="180" stroke="#374151" stroke-width="1"/>
  <text class="ts" x="74" y="184" text-anchor="end" fill="var(--color-text-secondary)">300</text>
  <line x1="78" y1="133" x2="84" y2="133" stroke="#374151" stroke-width="1"/>
  <text class="ts" x="74" y="137" text-anchor="end" fill="var(--color-text-secondary)">400</text>
  <line x1="78" y1="87"  x2="84" y2="87"  stroke="#374151" stroke-width="1"/>
  <text class="ts" x="74" y="91"  text-anchor="end" fill="var(--color-text-secondary)">500</text>

  <!-- Droite de référence (une seule pente) -->
  <line x1="80" y1="320" x2="620" y2="86" stroke="#6b7280" stroke-width="1.5" stroke-dasharray="5,4" opacity="0.4"/>
  <!-- Segment 1 : teal, pente forte -->
  <line x1="80"  y1="320" x2="330" y2="186" stroke="#0d9488" stroke-width="2.5"/>
  <!-- Segment 2 : violet, pente douce -->
  <line x1="330" y1="186" x2="620" y2="99"  stroke="#7c3aed" stroke-width="2.5"/>
  <!-- Point de coupure -->
  <circle cx="330" cy="186" r="6" fill="white" stroke="#374151" stroke-width="2"/>

  <!-- Points normaux -->
  <circle cx="163" cy="287" r="5" fill="#3b82f6" fill-opacity="0.75"/>
  <circle cx="196" cy="280" r="5" fill="#3b82f6" fill-opacity="0.75"/>
  <circle cx="213" cy="259" r="5" fill="#3b82f6" fill-opacity="0.75"/>
  <circle cx="238" cy="269" r="5" fill="#3b82f6" fill-opacity="0.75"/>
  <circle cx="267" cy="245" r="5" fill="#3b82f6" fill-opacity="0.75"/>
  <circle cx="279" cy="227" r="5" fill="#3b82f6" fill-opacity="0.75"/>
  <circle cx="296" cy="241" r="5" fill="#3b82f6" fill-opacity="0.75"/>
  <circle cx="321" cy="213" r="5" fill="#3b82f6" fill-opacity="0.75"/>
  <circle cx="338" cy="222" r="5" fill="#3b82f6" fill-opacity="0.75"/>
  <circle cx="358" cy="199" r="5" fill="#3b82f6" fill-opacity="0.75"/>
  <circle cx="371" cy="180" r="5" fill="#3b82f6" fill-opacity="0.75"/>
  <circle cx="392" cy="203" r="5" fill="#3b82f6" fill-opacity="0.75"/>
  <circle cx="412" cy="166" r="5" fill="#3b82f6" fill-opacity="0.75"/>
  <circle cx="433" cy="152" r="5" fill="#3b82f6" fill-opacity="0.75"/>
  <circle cx="454" cy="175" r="5" fill="#3b82f6" fill-opacity="0.75"/>
  <circle cx="475" cy="133" r="5" fill="#3b82f6" fill-opacity="0.75"/>
  <circle cx="487" cy="147" r="5" fill="#3b82f6" fill-opacity="0.75"/>
  <circle cx="516" cy="110" r="5" fill="#3b82f6" fill-opacity="0.75"/>
  <circle cx="537" cy="124" r="5" fill="#3b82f6" fill-opacity="0.75"/>
  <circle cx="571" cy="87"  r="5" fill="#3b82f6" fill-opacity="0.75"/>

  <!-- Annotations -->
  <text class="ts" x="190" y="175" text-anchor="middle" fill="#0d9488">4 800 €/m²</text>
  <text class="ts" x="490" y="112" text-anchor="middle" fill="#7c3aed">3 100 €/m²</text>

  <!-- Légende -->
  <line x1="84"  y1="368" x2="112" y2="368" stroke="#0d9488" stroke-width="2.5"/>
  <text class="ts" x="118" y="372" fill="var(--color-text-secondary)">petites surfaces</text>
  <line x1="240" y1="368" x2="268" y2="368" stroke="#7c3aed" stroke-width="2.5"/>
  <text class="ts" x="274" y="372" fill="var(--color-text-secondary)">grandes surfaces</text>
  <line x1="400" y1="368" x2="428" y2="368" stroke="#6b7280" stroke-width="1.5" stroke-dasharray="5,4" opacity="0.5"/>
  <text class="ts" x="434" y="372" fill="var(--color-text-secondary)">modèle simple</text>

</svg>
