<svg xmlns="http://www.w3.org/2000/svg" viewBox="0 0 500 320" width="100%" height="100%" style="background-color: #fafafa;">
  <rect x="20" y="15" width="460" height="290" rx="8" fill="none" stroke="#27ae60" stroke-width="2" />
  <text x="35" y="35" font-family="sans-serif" font-size="14" fill="#27ae60" font-weight="bold">Anatomie du Prompt Étendu (Contexte Global)</text>
  <g transform="translate(35, 55)">
    <rect x="0" y="0" width="200" height="50" rx="4" fill="#95a5a6" fill-opacity="0.2" stroke="#7f8c8d" />
    <text x="10" y="20" font-family="sans-serif" font-size="11" fill="#2c3e50" font-weight="bold">1. Prompt Système</text>
    <text x="10" y="38" font-family="sans-serif" font-size="9" fill="#7f8c8d">Rôle, consignes de style, limites</text>
  </g>
  <g transform="translate(255, 55)">
    <rect x="0" y="0" width="210" height="50" rx="4" fill="#95a5a6" fill-opacity="0.1" stroke="#7f8c8d" />
    <text x="10" y="20" font-family="sans-serif" font-size="11" fill="#2c3e50" font-weight="bold">2. Instructions Utilisateur</text>
    <text x="10" y="38" font-family="sans-serif" font-size="9" fill="#7f8c8d">Préférences globales ("sois neutre")</text>
  </g>
  <g transform="translate(35, 120)">
    <rect x="0" y="0" width="200" height="50" rx="4" fill="#2ecc71" fill-opacity="0.15" stroke="#27ae60" />
    <text x="10" y="20" font-family="sans-serif" font-size="11" fill="#27ae60" font-weight="bold">3. Documents &amp; Connaissances</text>
    <text x="10" y="38" font-family="sans-serif" font-size="9" fill="#7f8c8d">Fichiers joints, base Projet (RAG)</text>
  </g>
  <g transform="translate(255, 120)">
    <rect x="0" y="0" width="210" height="50" rx="4" fill="#f1c40f" fill-opacity="0.15" stroke="#f39c12" />
    <text x="10" y="20" font-family="sans-serif" font-size="11" fill="#d35400" font-weight="bold">4. Mémoire à long terme</text>
    <text x="10" y="38" font-family="sans-serif" font-size="9" fill="#7f8c8d">Notes capitalisées au fil des sessions</text>
  </g>
  <g transform="translate(35, 185)">
    <rect x="0" y="0" width="430" height="50" rx="4" fill="#e67e22" fill-opacity="0.1" stroke="#e67e22" stroke-width="1" />
    <text x="10" y="22" font-family="sans-serif" font-size="11" fill="#d35400" font-weight="bold">5. Historique de la session</text>
    <text x="10" y="40" font-family="sans-serif" font-size="9" fill="#7f8c8d">Échanges de messages précédents (mémoire artificielle à court terme)</text>
  </g>
  <g transform="translate(35, 250)">
    <rect x="0" y="0" width="430" height="40" rx="4" fill="#3498db" stroke="#2980b9" stroke-width="1.5" />
    <text x="10" y="24" font-family="sans-serif" font-size="12" fill="white" font-weight="bold">6. Question de l'utilisateur (Le Prompt Actuel)</text>
  </g>
</svg>